ISO-10303-21;
HEADER;
/* Generated by software containing ST-Developer
 * from STEP Tools, Inc. (www.steptools.com) 
 */

FILE_DESCRIPTION(
/* description */ (''),
/* implementation_level */ '2;1');

FILE_NAME(
/* name */ 'f4816ab0-252b-4f9a-b1a4-2f3924e00b06.stp',
/* time_stamp */ '2026-06-01T19:11:29Z',
/* author */ (''),
/* organization */ (''),
/* preprocessor_version */ 'ST-DEVELOPER v20.1',
/* originating_system */ 'Autodesk Translation Framework v15.8.0.0',
/* authorisation */ '');

FILE_SCHEMA (('AUTOMOTIVE_DESIGN { 1 0 10303 214 3 1 1 }'));
ENDSEC;

DATA;
#10=MECHANICAL_DESIGN_GEOMETRIC_PRESENTATION_REPRESENTATION('',(#13),#311);
#11=SHAPE_REPRESENTATION_RELATIONSHIP('SRR','None',#318,#12);
#12=ADVANCED_BREP_SHAPE_REPRESENTATION('',(#14),#310);
#13=STYLED_ITEM('',(#327),#14);
#14=MANIFOLD_SOLID_BREP('Body1',#167);
#15=FACE_BOUND('',#52,.T.);
#16=FACE_BOUND('',#53,.T.);
#17=FACE_BOUND('',#54,.T.);
#18=FACE_BOUND('',#55,.T.);
#19=FACE_BOUND('',#57,.T.);
#20=PLANE('',#184);
#21=PLANE('',#188);
#22=PLANE('',#192);
#23=PLANE('',#196);
#24=PLANE('',#200);
#25=PLANE('',#204);
#26=PLANE('',#205);
#27=FACE_OUTER_BOUND('',#40,.T.);
#28=FACE_OUTER_BOUND('',#41,.T.);
#29=FACE_OUTER_BOUND('',#42,.T.);
#30=FACE_OUTER_BOUND('',#43,.T.);
#31=FACE_OUTER_BOUND('',#44,.T.);
#32=FACE_OUTER_BOUND('',#45,.T.);
#33=FACE_OUTER_BOUND('',#46,.T.);
#34=FACE_OUTER_BOUND('',#47,.T.);
#35=FACE_OUTER_BOUND('',#48,.T.);
#36=FACE_OUTER_BOUND('',#49,.T.);
#37=FACE_OUTER_BOUND('',#50,.T.);
#38=FACE_OUTER_BOUND('',#51,.T.);
#39=FACE_OUTER_BOUND('',#56,.T.);
#40=EDGE_LOOP('',(#112,#113,#114,#115));
#41=EDGE_LOOP('',(#116));
#42=EDGE_LOOP('',(#117,#118,#119,#120));
#43=EDGE_LOOP('',(#121));
#44=EDGE_LOOP('',(#122,#123,#124,#125));
#45=EDGE_LOOP('',(#126));
#46=EDGE_LOOP('',(#127,#128,#129,#130));
#47=EDGE_LOOP('',(#131));
#48=EDGE_LOOP('',(#132,#133,#134,#135));
#49=EDGE_LOOP('',(#136));
#50=EDGE_LOOP('',(#137,#138,#139,#140));
#51=EDGE_LOOP('',(#141));
#52=EDGE_LOOP('',(#142));
#53=EDGE_LOOP('',(#143));
#54=EDGE_LOOP('',(#144));
#55=EDGE_LOOP('',(#145));
#56=EDGE_LOOP('',(#146));
#57=EDGE_LOOP('',(#147));
#58=LINE('',#269,#64);
#59=LINE('',#276,#65);
#60=LINE('',#283,#66);
#61=LINE('',#290,#67);
#62=LINE('',#297,#68);
#63=LINE('',#304,#69);
#64=VECTOR('',#212,0.25);
#65=VECTOR('',#221,0.25);
#66=VECTOR('',#230,0.25);
#67=VECTOR('',#239,0.25);
#68=VECTOR('',#248,6.3);
#69=VECTOR('',#257,6.75);
#70=CIRCLE('',#182,0.25);
#71=CIRCLE('',#183,0.25);
#72=CIRCLE('',#186,0.25);
#73=CIRCLE('',#187,0.25);
#74=CIRCLE('',#190,0.25);
#75=CIRCLE('',#191,0.25);
#76=CIRCLE('',#194,0.25);
#77=CIRCLE('',#195,0.25);
#78=CIRCLE('',#198,6.3);
#79=CIRCLE('',#199,6.3);
#80=CIRCLE('',#202,6.75);
#81=CIRCLE('',#203,6.75);
#82=VERTEX_POINT('',#266);
#83=VERTEX_POINT('',#268);
#84=VERTEX_POINT('',#273);
#85=VERTEX_POINT('',#275);
#86=VERTEX_POINT('',#280);
#87=VERTEX_POINT('',#282);
#88=VERTEX_POINT('',#287);
#89=VERTEX_POINT('',#289);
#90=VERTEX_POINT('',#294);
#91=VERTEX_POINT('',#296);
#92=VERTEX_POINT('',#301);
#93=VERTEX_POINT('',#303);
#94=EDGE_CURVE('',#82,#82,#70,.T.);
#95=EDGE_CURVE('',#82,#83,#58,.T.);
#96=EDGE_CURVE('',#83,#83,#71,.T.);
#97=EDGE_CURVE('',#84,#84,#72,.T.);
#98=EDGE_CURVE('',#84,#85,#59,.T.);
#99=EDGE_CURVE('',#85,#85,#73,.T.);
#100=EDGE_CURVE('',#86,#86,#74,.T.);
#101=EDGE_CURVE('',#86,#87,#60,.T.);
#102=EDGE_CURVE('',#87,#87,#75,.T.);
#103=EDGE_CURVE('',#88,#88,#76,.T.);
#104=EDGE_CURVE('',#88,#89,#61,.T.);
#105=EDGE_CURVE('',#89,#89,#77,.T.);
#106=EDGE_CURVE('',#90,#90,#78,.T.);
#107=EDGE_CURVE('',#90,#91,#62,.T.);
#108=EDGE_CURVE('',#91,#91,#79,.T.);
#109=EDGE_CURVE('',#92,#92,#80,.T.);
#110=EDGE_CURVE('',#92,#93,#63,.T.);
#111=EDGE_CURVE('',#93,#93,#81,.T.);
#112=ORIENTED_EDGE('',*,*,#94,.F.);
#113=ORIENTED_EDGE('',*,*,#95,.T.);
#114=ORIENTED_EDGE('',*,*,#96,.F.);
#115=ORIENTED_EDGE('',*,*,#95,.F.);
#116=ORIENTED_EDGE('',*,*,#94,.T.);
#117=ORIENTED_EDGE('',*,*,#97,.F.);
#118=ORIENTED_EDGE('',*,*,#98,.T.);
#119=ORIENTED_EDGE('',*,*,#99,.F.);
#120=ORIENTED_EDGE('',*,*,#98,.F.);
#121=ORIENTED_EDGE('',*,*,#97,.T.);
#122=ORIENTED_EDGE('',*,*,#100,.F.);
#123=ORIENTED_EDGE('',*,*,#101,.T.);
#124=ORIENTED_EDGE('',*,*,#102,.F.);
#125=ORIENTED_EDGE('',*,*,#101,.F.);
#126=ORIENTED_EDGE('',*,*,#100,.T.);
#127=ORIENTED_EDGE('',*,*,#103,.F.);
#128=ORIENTED_EDGE('',*,*,#104,.T.);
#129=ORIENTED_EDGE('',*,*,#105,.F.);
#130=ORIENTED_EDGE('',*,*,#104,.F.);
#131=ORIENTED_EDGE('',*,*,#103,.T.);
#132=ORIENTED_EDGE('',*,*,#106,.F.);
#133=ORIENTED_EDGE('',*,*,#107,.T.);
#134=ORIENTED_EDGE('',*,*,#108,.F.);
#135=ORIENTED_EDGE('',*,*,#107,.F.);
#136=ORIENTED_EDGE('',*,*,#106,.T.);
#137=ORIENTED_EDGE('',*,*,#109,.F.);
#138=ORIENTED_EDGE('',*,*,#110,.T.);
#139=ORIENTED_EDGE('',*,*,#111,.F.);
#140=ORIENTED_EDGE('',*,*,#110,.F.);
#141=ORIENTED_EDGE('',*,*,#111,.T.);
#142=ORIENTED_EDGE('',*,*,#96,.T.);
#143=ORIENTED_EDGE('',*,*,#99,.T.);
#144=ORIENTED_EDGE('',*,*,#102,.T.);
#145=ORIENTED_EDGE('',*,*,#105,.T.);
#146=ORIENTED_EDGE('',*,*,#109,.T.);
#147=ORIENTED_EDGE('',*,*,#108,.T.);
#148=CYLINDRICAL_SURFACE('',#181,0.25);
#149=CYLINDRICAL_SURFACE('',#185,0.25);
#150=CYLINDRICAL_SURFACE('',#189,0.25);
#151=CYLINDRICAL_SURFACE('',#193,0.25);
#152=CYLINDRICAL_SURFACE('',#197,6.3);
#153=CYLINDRICAL_SURFACE('',#201,6.75);
#154=ADVANCED_FACE('',(#27),#148,.T.);
#155=ADVANCED_FACE('',(#28),#20,.T.);
#156=ADVANCED_FACE('',(#29),#149,.T.);
#157=ADVANCED_FACE('',(#30),#21,.T.);
#158=ADVANCED_FACE('',(#31),#150,.T.);
#159=ADVANCED_FACE('',(#32),#22,.T.);
#160=ADVANCED_FACE('',(#33),#151,.T.);
#161=ADVANCED_FACE('',(#34),#23,.T.);
#162=ADVANCED_FACE('',(#35),#152,.T.);
#163=ADVANCED_FACE('',(#36),#24,.T.);
#164=ADVANCED_FACE('',(#37),#153,.T.);
#165=ADVANCED_FACE('',(#38,#15,#16,#17,#18),#25,.T.);
#166=ADVANCED_FACE('',(#39,#19),#26,.T.);
#167=CLOSED_SHELL('',(#154,#155,#156,#157,#158,#159,#160,#161,#162,#163,
#164,#165,#166));
#168=DERIVED_UNIT_ELEMENT(#170,1.);
#169=DERIVED_UNIT_ELEMENT(#313,-3.);
#170=(
MASS_UNIT()
NAMED_UNIT(*)
SI_UNIT(.KILO.,.GRAM.)
);
#171=DERIVED_UNIT((#168,#169));
#172=MEASURE_REPRESENTATION_ITEM('density measure',
POSITIVE_RATIO_MEASURE(7850.),#171);
#173=PROPERTY_DEFINITION_REPRESENTATION(#178,#175);
#174=PROPERTY_DEFINITION_REPRESENTATION(#179,#176);
#175=REPRESENTATION('material name',(#177),#310);
#176=REPRESENTATION('density',(#172),#310);
#177=DESCRIPTIVE_REPRESENTATION_ITEM('Steel','Steel');
#178=PROPERTY_DEFINITION('material property','material name',#320);
#179=PROPERTY_DEFINITION('material property','density of part',#320);
#180=AXIS2_PLACEMENT_3D('',#264,#206,#207);
#181=AXIS2_PLACEMENT_3D('',#265,#208,#209);
#182=AXIS2_PLACEMENT_3D('',#267,#210,#211);
#183=AXIS2_PLACEMENT_3D('',#270,#213,#214);
#184=AXIS2_PLACEMENT_3D('',#271,#215,#216);
#185=AXIS2_PLACEMENT_3D('',#272,#217,#218);
#186=AXIS2_PLACEMENT_3D('',#274,#219,#220);
#187=AXIS2_PLACEMENT_3D('',#277,#222,#223);
#188=AXIS2_PLACEMENT_3D('',#278,#224,#225);
#189=AXIS2_PLACEMENT_3D('',#279,#226,#227);
#190=AXIS2_PLACEMENT_3D('',#281,#228,#229);
#191=AXIS2_PLACEMENT_3D('',#284,#231,#232);
#192=AXIS2_PLACEMENT_3D('',#285,#233,#234);
#193=AXIS2_PLACEMENT_3D('',#286,#235,#236);
#194=AXIS2_PLACEMENT_3D('',#288,#237,#238);
#195=AXIS2_PLACEMENT_3D('',#291,#240,#241);
#196=AXIS2_PLACEMENT_3D('',#292,#242,#243);
#197=AXIS2_PLACEMENT_3D('',#293,#244,#245);
#198=AXIS2_PLACEMENT_3D('',#295,#246,#247);
#199=AXIS2_PLACEMENT_3D('',#298,#249,#250);
#200=AXIS2_PLACEMENT_3D('',#299,#251,#252);
#201=AXIS2_PLACEMENT_3D('',#300,#253,#254);
#202=AXIS2_PLACEMENT_3D('',#302,#255,#256);
#203=AXIS2_PLACEMENT_3D('',#305,#258,#259);
#204=AXIS2_PLACEMENT_3D('',#306,#260,#261);
#205=AXIS2_PLACEMENT_3D('',#307,#262,#263);
#206=DIRECTION('axis',(0.,0.,1.));
#207=DIRECTION('refdir',(1.,0.,0.));
#208=DIRECTION('center_axis',(0.,0.,-1.));
#209=DIRECTION('ref_axis',(1.,0.,0.));
#210=DIRECTION('center_axis',(0.,0.,-1.));
#211=DIRECTION('ref_axis',(1.,0.,0.));
#212=DIRECTION('',(0.,0.,1.));
#213=DIRECTION('center_axis',(0.,0.,1.));
#214=DIRECTION('ref_axis',(1.,0.,0.));
#215=DIRECTION('center_axis',(0.,0.,-1.));
#216=DIRECTION('ref_axis',(1.,0.,0.));
#217=DIRECTION('center_axis',(0.,0.,-1.));
#218=DIRECTION('ref_axis',(1.,0.,0.));
#219=DIRECTION('center_axis',(0.,0.,-1.));
#220=DIRECTION('ref_axis',(1.,0.,0.));
#221=DIRECTION('',(0.,0.,1.));
#222=DIRECTION('center_axis',(0.,0.,1.));
#223=DIRECTION('ref_axis',(1.,0.,0.));
#224=DIRECTION('center_axis',(0.,0.,-1.));
#225=DIRECTION('ref_axis',(1.,0.,0.));
#226=DIRECTION('center_axis',(0.,0.,-1.));
#227=DIRECTION('ref_axis',(1.,0.,0.));
#228=DIRECTION('center_axis',(0.,0.,-1.));
#229=DIRECTION('ref_axis',(1.,0.,0.));
#230=DIRECTION('',(0.,0.,1.));
#231=DIRECTION('center_axis',(0.,0.,1.));
#232=DIRECTION('ref_axis',(1.,0.,0.));
#233=DIRECTION('center_axis',(0.,0.,-1.));
#234=DIRECTION('ref_axis',(1.,0.,0.));
#235=DIRECTION('center_axis',(0.,0.,-1.));
#236=DIRECTION('ref_axis',(0.,1.,0.));
#237=DIRECTION('center_axis',(0.,0.,-1.));
#238=DIRECTION('ref_axis',(0.,1.,0.));
#239=DIRECTION('',(0.,0.,1.));
#240=DIRECTION('center_axis',(0.,0.,1.));
#241=DIRECTION('ref_axis',(0.,1.,0.));
#242=DIRECTION('center_axis',(0.,0.,-1.));
#243=DIRECTION('ref_axis',(0.,1.,0.));
#244=DIRECTION('center_axis',(0.,0.,1.));
#245=DIRECTION('ref_axis',(1.,0.,0.));
#246=DIRECTION('center_axis',(0.,0.,1.));
#247=DIRECTION('ref_axis',(1.,0.,0.));
#248=DIRECTION('',(0.,0.,-1.));
#249=DIRECTION('center_axis',(0.,0.,-1.));
#250=DIRECTION('ref_axis',(1.,0.,0.));
#251=DIRECTION('center_axis',(0.,0.,1.));
#252=DIRECTION('ref_axis',(1.,0.,0.));
#253=DIRECTION('center_axis',(0.,0.,1.));
#254=DIRECTION('ref_axis',(1.,0.,0.));
#255=DIRECTION('center_axis',(0.,0.,1.));
#256=DIRECTION('ref_axis',(1.,0.,0.));
#257=DIRECTION('',(0.,0.,-1.));
#258=DIRECTION('center_axis',(0.,0.,-1.));
#259=DIRECTION('ref_axis',(1.,0.,0.));
#260=DIRECTION('center_axis',(0.,0.,-1.));
#261=DIRECTION('ref_axis',(-1.,0.,0.));
#262=DIRECTION('center_axis',(0.,0.,1.));
#263=DIRECTION('ref_axis',(1.,0.,0.));
#264=CARTESIAN_POINT('',(0.,0.,0.));
#265=CARTESIAN_POINT('Origin',(-3.14962210376803,0.00806777367319914,0.));
#266=CARTESIAN_POINT('',(-3.39962210376803,0.00806777367319917,-2.));
#267=CARTESIAN_POINT('Origin',(-3.14962210376803,0.00806777367319914,-2.));
#268=CARTESIAN_POINT('',(-3.39962210376803,0.00806777367319917,0.));
#269=CARTESIAN_POINT('',(-3.39962210376803,0.00806777367319917,0.));
#270=CARTESIAN_POINT('Origin',(-3.14962210376803,0.00806777367319914,0.));
#271=CARTESIAN_POINT('Origin',(-3.14962210376803,0.00806777367319912,-2.));
#272=CARTESIAN_POINT('Origin',(-1.24995379813422,-0.00480612091784964,0.));
#273=CARTESIAN_POINT('',(-1.49995379813422,-0.00480612091784961,-2.));
#274=CARTESIAN_POINT('Origin',(-1.24995379813422,-0.00480612091784964,-2.));
#275=CARTESIAN_POINT('',(-1.49995379813422,-0.00480612091784961,0.));
#276=CARTESIAN_POINT('',(-1.49995379813422,-0.00480612091784961,0.));
#277=CARTESIAN_POINT('Origin',(-1.24995379813422,-0.00480612091784964,0.));
#278=CARTESIAN_POINT('Origin',(-1.24995379813422,-0.00480612091784963,-2.));
#279=CARTESIAN_POINT('Origin',(2.49999995214946,0.000154677941518453,0.));
#280=CARTESIAN_POINT('',(2.24999995214946,0.000154677941518483,-2.));
#281=CARTESIAN_POINT('Origin',(2.49999995214946,0.000154677941518453,-2.));
#282=CARTESIAN_POINT('',(2.24999995214946,0.000154677941518483,0.));
#283=CARTESIAN_POINT('',(2.24999995214946,0.000154677941518483,0.));
#284=CARTESIAN_POINT('Origin',(2.49999995214946,0.000154677941518453,0.));
#285=CARTESIAN_POINT('Origin',(2.49999995214946,0.000154677941518466,-2.));
#286=CARTESIAN_POINT('Origin',(0.,0.,-1.));
#287=CARTESIAN_POINT('',(-3.06161699786838E-17,-0.25,-2.));
#288=CARTESIAN_POINT('Origin',(0.,0.,-2.));
#289=CARTESIAN_POINT('',(-3.06161699786838E-17,-0.25,0.));
#290=CARTESIAN_POINT('',(-3.06161699786838E-17,-0.25,-1.));
#291=CARTESIAN_POINT('Origin',(0.,0.,0.));
#292=CARTESIAN_POINT('Origin',(0.,0.,-2.));
#293=CARTESIAN_POINT('Origin',(0.,0.,4.));
#294=CARTESIAN_POINT('',(-6.3,-7.71527483462833E-16,6.));
#295=CARTESIAN_POINT('Origin',(0.,0.,6.));
#296=CARTESIAN_POINT('',(-6.3,-7.71527483462833E-16,2.));
#297=CARTESIAN_POINT('',(-6.3,-7.71527483462833E-16,4.));
#298=CARTESIAN_POINT('Origin',(0.,0.,2.));
#299=CARTESIAN_POINT('Origin',(0.,0.,6.));
#300=CARTESIAN_POINT('Origin',(0.,0.,1.));
#301=CARTESIAN_POINT('',(-6.75,-8.26636589424463E-16,2.));
#302=CARTESIAN_POINT('Origin',(0.,0.,2.));
#303=CARTESIAN_POINT('',(-6.75,-8.26636589424463E-16,0.));
#304=CARTESIAN_POINT('',(-6.75,-8.26636589424463E-16,1.));
#305=CARTESIAN_POINT('Origin',(0.,0.,0.));
#306=CARTESIAN_POINT('Origin',(0.,0.,0.));
#307=CARTESIAN_POINT('Origin',(0.,0.,2.));
#308=UNCERTAINTY_MEASURE_WITH_UNIT(LENGTH_MEASURE(0.01),#312,
'DISTANCE_ACCURACY_VALUE',
'Maximum model space distance between geometric entities at asserted c
onnectivities');
#309=UNCERTAINTY_MEASURE_WITH_UNIT(LENGTH_MEASURE(0.01),#312,
'DISTANCE_ACCURACY_VALUE',
'Maximum model space distance between geometric entities at asserted c
onnectivities');
#310=(
GEOMETRIC_REPRESENTATION_CONTEXT(3)
GLOBAL_UNCERTAINTY_ASSIGNED_CONTEXT((#308))
GLOBAL_UNIT_ASSIGNED_CONTEXT((#312,#314,#315))
REPRESENTATION_CONTEXT('','3D')
);
#311=(
GEOMETRIC_REPRESENTATION_CONTEXT(3)
GLOBAL_UNCERTAINTY_ASSIGNED_CONTEXT((#309))
GLOBAL_UNIT_ASSIGNED_CONTEXT((#312,#314,#315))
REPRESENTATION_CONTEXT('','3D')
);
#312=(
LENGTH_UNIT()
NAMED_UNIT(*)
SI_UNIT(.MILLI.,.METRE.)
);
#313=(
LENGTH_UNIT()
NAMED_UNIT(*)
SI_UNIT($,.METRE.)
);
#314=(
NAMED_UNIT(*)
PLANE_ANGLE_UNIT()
SI_UNIT($,.RADIAN.)
);
#315=(
NAMED_UNIT(*)
SI_UNIT($,.STERADIAN.)
SOLID_ANGLE_UNIT()
);
#316=SHAPE_DEFINITION_REPRESENTATION(#317,#318);
#317=PRODUCT_DEFINITION_SHAPE('',$,#320);
#318=SHAPE_REPRESENTATION('',(#180),#310);
#319=PRODUCT_DEFINITION_CONTEXT('part definition',#324,'design');
#320=PRODUCT_DEFINITION('Magnetic_Connectors_Umbilical_Outer',
'Magnetic_Connectors_Umbilical_Outer v2',#321,#319);
#321=PRODUCT_DEFINITION_FORMATION('',$,#326);
#322=PRODUCT_RELATED_PRODUCT_CATEGORY(
'Magnetic_Connectors_Umbilical_Outer v2',
'Magnetic_Connectors_Umbilical_Outer v2',(#326));
#323=APPLICATION_PROTOCOL_DEFINITION('international standard',
'automotive_design',2009,#324);
#324=APPLICATION_CONTEXT(
'Core Data for Automotive Mechanical Design Process');
#325=PRODUCT_CONTEXT('part definition',#324,'mechanical');
#326=PRODUCT('Magnetic_Connectors_Umbilical_Outer',
'Magnetic_Connectors_Umbilical_Outer v2',$,(#325));
#327=PRESENTATION_STYLE_ASSIGNMENT((#328));
#328=SURFACE_STYLE_USAGE(.BOTH.,#329);
#329=SURFACE_SIDE_STYLE('',(#330));
#330=SURFACE_STYLE_FILL_AREA(#331);
#331=FILL_AREA_STYLE('Steel - Satin',(#332));
#332=FILL_AREA_STYLE_COLOUR('Steel - Satin',#333);
#333=COLOUR_RGB('Steel - Satin',0.627450980392157,0.627450980392157,0.627450980392157);
ENDSEC;
END-ISO-10303-21;
